<?xml version="1.0" encoding="UTF-8"?>
<svg id="_Слой_1" data-name="Слой_1" xmlns="http://www.w3.org/2000/svg" viewBox="0 0 900 900">
  <defs>
    <style>
      .cls-1 {
        fill: #fff;
      }

      .cls-2 {
        fill: none;
      }
    </style>
  </defs>
  <rect class="cls-1" width="900" height="900"/>
  <rect class="cls-2" x="0" width="900" height="900"/>
  <path d="M85.07,422.26c18.05,7.34,27.07,12.39,27.31,25.63.24,13.84-7.58,26.11-33.09,26.11-15.88,0-25.51-4.93-25.51-4.93.96-3.73,4.21-13.6,5.65-20.45l1.08.24c-.84,5.53-2.89,15.4,1.08,17.93,4.21,2.77,9.26,4.93,17.69,4.93,18.65,0,24.79-12.03,24.3-21.66-.36-8.3-8.3-13.72-21.42-18.89-18.65-7.34-27.19-12.63-27.19-24.78,0-11.19,6.14-19.73,27.07-19.73,15.76,0,24.3,3.37,24.3,3.37-.84,3.73-3.13,10.35-4.21,17.21l-1.08-.12c.6-5.53,1.56-12.75-2.41-15.16-3.61-2.29-9.99-3.85-16.6-3.85-14.32,0-19.01,6.5-18.53,16.84.48,8.42,9.14,12.27,21.54,17.33Z"/>
  <path d="M218.74,430.33c0,27.07-19.01,43.67-47.4,43.67s-47.52-16.6-47.52-43.67,19.13-43.67,47.52-43.67,47.4,16.6,47.4,43.67ZM208.63,430.33c0-26.23-14.56-42.23-37.3-42.23s-37.42,16-37.42,42.23,14.56,42.23,37.42,42.23,37.3-16,37.3-42.23Z"/>
  <path d="M322.09,433.33v1.08c-7.7.84-12.87,1.56-12.87,4.57v35.01h-1.2c-.6-4.21-3.25-7.34-9.38-4.33-5.17,2.53-11.43,4.33-19.25,4.33-28.51,0-47.52-16.6-47.52-43.67s19.01-43.67,47.52-43.67c15.76,0,26.23,3.37,26.23,3.37-.84,3.73-3.49,12.27-4.57,19.25l-1.08-.24c.48-5.53,2.17-15.16-2.05-17.08-4.93-2.41-12.03-3.85-18.53-3.85-22.86,0-37.42,16-37.42,42.23s14.56,41.03,37.42,41.03c6.5,0,12.39-1.32,17.45-3.97,2.29-1.2,3.01-2.53,3.01-6.14v-22.26c0-3.01-5.17-3.73-12.99-4.57v-1.08c6.98.36,13.72.6,17.69.6s10.71-.24,17.57-.6Z"/>
  <path d="M407.52,386.53v1.08c-7.82.84-11.31,1.68-11.31,4.69v81.69h-3.85l-55.1-73.27c-.24-.24-.72-.6-.72.36v67.26c0,3.01,3.61,3.85,11.31,4.69v1.08c-6.26-.36-8.9-.6-12.15-.6s-5.9.24-12.15.6v-1.08c7.7-.84,11.31-1.68,11.31-4.69v-76.16c0-2.89-3.61-3.73-11.31-4.57v-1.08c6.98.36,14.56.6,14.56.6,0,0,2.53,3.73,3.97,5.53l51.38,68.1c.36.48,1.08.96,1.08-.48v-68.1c0-2.89-3.61-3.73-11.31-4.57v-1.08c4.09.24,8.06.6,12.15.6s8.06-.36,12.15-.6Z"/>
  <path d="M501.72,474.12c-6.86-.36-13.72-.6-17.57-.6s-10.71.24-17.69.6v-1.08c7.7-.84,13.23-1.92,12.03-4.93l-7.22-17.57c-.12-.36-.72-1.2-1.8-1.2h-38.26q-.84,0-1.32,1.08c-1.32,3.73-5.65,16.24-6.38,18.17-.84,2.29,2.89,3.61,10.35,4.45v1.08c-6.38-.36-9.02-.6-12.51-.6s-6.02.24-12.51.6v-1.08c7.82-.84,11.31-1.92,12.27-4.69,1.32-3.61,29.36-81.69,29.36-81.69h3.61l33.93,81.69c1.2,2.77,6.02,3.85,13.72,4.69v1.08ZM431.7,447.77h37.18c.84,0,1.2-.24.84-.96l-20.57-49.69c-.24-.6-.36-.72-.6-.12l-17.33,49.57c-.12.36-.36,1.2.48,1.2Z"/>
  <path d="M573.55,404.46h-1.08c-.84-7.7-1.44-14.56-8.3-14.8-4.09-.12-17.08-.48-22.38-.6-1.44,0-2.29,0-2.29,1.68v77.6c0,3.01,5.17,3.85,12.87,4.69v1.08c-6.26-.36-12.51-.6-16.6-.6h-2.05c-3.97,0-10.23.24-16.6.6v-1.08c7.82-.84,12.99-1.68,12.99-4.69v-77.48c0-1.8-.96-1.8-2.53-1.8-5.29.12-17.21.36-22.14.6-6.86.36-7.58,7.1-8.42,14.8h-1.08c.36-5.77-.48-17.33-.48-17.33h78.69s-.84,11.55-.6,17.33Z"/>
  <path d="M675.46,430.33c0,27.07-19.01,43.67-47.4,43.67s-47.52-16.6-47.52-43.67,19.13-43.67,47.52-43.67,47.4,16.6,47.4,43.67ZM665.35,430.33c0-26.23-14.56-42.23-37.3-42.23s-37.42,16-37.42,42.23,14.56,42.23,37.42,42.23,37.3-16,37.3-42.23Z"/>
  <path d="M767.62,474c-6.98-.36-13.72-.6-17.69-.6h-2.89l-28.15-39.1c-.24-.36-1.92-1.56-5.05-1.56h-8.54c-.6,0-1.92-.12-1.92,1.68v33.93c0,3.01,5.29,3.85,12.99,4.69v1.08c-6.26-.36-12.51-.6-16.6-.6h-2.05c-3.97,0-10.23.24-16.6.6v-1.08c7.7-.84,12.99-1.68,12.99-4.69v-76.16c0-2.89-5.29-3.73-12.99-4.57v-1.08c6.98.36,13.96.6,17.81.6h18.05c23.7,0,39.34,6.02,39.34,22.86,0,13.48-11.07,21.06-31.76,22.5,1.08.48,2.41.96,3.97,2.89,3.97,5.17,23.94,32.12,24.18,32.24,2.17,2.89,7.1,4.45,14.92,5.29v1.08ZM703.38,429.96c0,1.32,1.08,1.32,1.92,1.32h11.67c18.17,0,29.24-5.17,29.24-21.3s-11.07-21.42-29.24-21.42h-11.67c-1.08,0-1.92.48-1.92,2.04v39.34Z"/>
  <path d="M845.35,473.52h-59.2c-3.97.12-9.26.24-14.56.6v-1.08c7.7-.84,12.87-1.68,12.87-4.69v-76.16c0-2.89-5.17-3.73-12.87-4.57v-1.08c6.98.36,14.2.6,17.69.6h55.59s-.84,14.92-.6,20.93h-1.08c-.84-7.82-1.44-18.17-8.3-18.41-.96-.12-32.12-.6-39.46-.72-.96,0-1.56,0-1.56,1.68v34.41c0,.48-.12,1.56,1.56,1.56l22.86-.12c2.89,0,4.33-4.93,5.17-12.63h1.08c-.36,6.26-.6,10.11-.6,13.6s.24,7.46.6,13.72h-1.08c-.84-7.82-2.29-12.75-5.29-12.75,3.01,0-7.1-.12-22.5-.12-.6,0-1.8,0-1.8,1.56v40.06c0,1.8.72,1.8,1.92,1.8,7.7-.12,35.97-.36,39.7-.6,6.74-.48,7.46-12.63,8.3-20.33h1.08c-.24,5.41.48,22.74.48,22.74Z"/>
  <path d="M346.55,524.45h-18.72l-4.2,9.16h-1.65l14.48-31.28h1.47l14.48,31.28h-1.65l-4.2-9.16ZM345.97,523.15l-8.76-19.08-8.8,19.08h17.56Z"/>
  <path d="M374.79,503.71h-11.48v-1.38h24.44v1.38h-11.48v29.89h-1.47v-29.89Z"/>
  <path d="M426.71,532.22v1.38h-21.14v-31.28h20.51v1.38h-18.99v13.32h16.98v1.39h-16.98v13.81h19.62Z"/>
  <path d="M447.36,502.33h1.52v29.89h18.32v1.38h-19.84v-31.28Z"/>
  <path d="M485.29,502.33h1.52v31.28h-1.52v-31.28Z"/>
  <path d="M531.32,532.22v1.38h-21.14v-31.28h20.51v1.38h-18.99v13.32h16.98v1.39h-16.98v13.81h19.62Z"/>
  <path d="M573.94,533.61l-7.73-10.77c-1.01.18-2.14.27-3.4.27h-9.34v10.5h-1.52v-31.28h10.86c3.9,0,6.95.92,9.14,2.75s3.28,4.37,3.28,7.62c0,2.5-.65,4.6-1.94,6.28s-3.15,2.85-5.56,3.51l8,11.13h-1.79ZM562.91,521.72c3.49,0,6.17-.78,8.04-2.35,1.88-1.56,2.81-3.79,2.81-6.68s-.94-5.07-2.81-6.64c-1.88-1.56-4.56-2.35-8.04-2.35h-9.43v18.01h9.43Z"/>
  <rect class="cls-2" x="0" width="900" height="900"/>
</svg>