<svg xmlns="http://www.w3.org/2000/svg" viewBox="0 0 545.74 62"><path d="M90.87 38.38h.98v10.94H59.7v-.98c3.57-.24 5.52-1.42 5.67-4.93.1-2.1.2-4.64.2-12.41s-.1-10.31-.2-12.41c-.15-3.52-2.1-4.69-5.67-4.93v-.98h28.72l.2 8.84h-.98c-.73-4.74-2.3-7.82-10.94-7.82h-5.71v15.92h1.86c5.03 0 6.59-2.59 6.94-6.64h1.03v14.36h-1.03c-.34-4.05-1.9-6.64-6.94-6.64h-1.86v.29c0 7.77.1 9.96.2 12.06.2 4.2 2.59 5.28 8.55 5.28 6.94 0 9.48-2.88 11.14-9.96ZM134.15 31c0 6.25-1.76 9.82-4.2 12.6-2.88 3.27-6.84 5.71-14.41 5.71H95.9v-.98c3.27-.34 5.52-1.42 5.67-4.93.1-2.1.2-4.64.2-12.41s-.1-10.31-.2-12.41c-.15-3.52-1.81-4.49-5.67-4.93v-.98h17.63c12.8 0 20.61 6.45 20.61 18.32Zm-26.96-17.29V31c0 7.77.1 9.96.2 12.06.2 4.2 3.03 5.28 6.84 5.28 5.42 0 8.01-2.2 10.7-6.06 2.05-2.93 2.98-6.74 2.98-11.28s-1.12-8.4-3.18-11.38c-2.44-3.66-5.52-5.91-11.82-5.91h-5.71Zm49.68-1.03h16.31v.98c-2.93.24-4.25 1.51-4.25 3.61 0 1.66.39 2.83 1.17 5.18l6.45 19.64 7.86-19.34c.73-1.76 1.32-3.27 1.32-5.08 0-2.49-1.76-3.81-4.74-4.01v-.98h13.33v.98c-2 .34-3.13.83-4.64 2.69-1.22 1.47-3.22 5.47-3.81 6.94l-10.99 26.52h-.93l-9.62-27.25-11.43 27.25h-.93l-9.43-26.52c-2.34-6.64-3.81-8.94-7.67-9.62v-.98h16.31v.98c-2.93.24-4.25 1.51-4.25 3.61 0 1.66.39 2.83 1.17 5.18l6.4 19.64 8.79-21.74c-1.07-2.98-2.34-6.11-6.45-6.69v-.98Zm53.63 21.88h-12.36l-1.95 4.69c-.73 1.76-1.32 3.27-1.32 5.08 0 2.49 1.76 3.81 4.74 4.01v.98h-13.33v-.98c3.61-.34 5.23-2.05 8.45-9.62l11.28-26.38h1.22l10.79 26.38c3.32 8.06 5.57 9.43 7.96 9.62v.98h-16.61v-.98c2.93-.24 4.4-1.12 4.4-3.22 0-1.66-.39-3.27-1.32-5.57l-1.95-4.98Zm-.54-1.32-5.42-13.77-5.81 13.77h11.23Zm33.66-20.56c8.99 0 13.24 3.37 13.24 8.89.15 5.37-2.78 8.11-7.57 9.08v.15c1.56.29 2.39 1.03 3.37 2.1 1.37 1.51 2.59 4 4.44 7.33 3.37 5.96 5.03 7.96 9.72 8.16v.93h-10.84c-.39-.59-3.61-6.11-5.28-9.57-1.27-2.69-2.49-5.71-4.93-7.28-1.22-.73-2.69-.93-4.1-.93h-3.17c0 7.38.1 9.82.2 11.87.15 3.52 2.34 4.74 5.67 4.93v.98h-17.14v-.98c3.96-.29 5.52-1.42 5.67-4.93.1-2.1.2-4.64.2-12.41s-.1-10.31-.2-12.41c-.15-3.52-1.71-4.64-5.67-4.93v-.98h16.41Zm-5.13.98v16.51h4.69c6.01 0 7.82-3.27 7.82-8.16s-2.25-8.35-8.16-8.35h-4.35ZM304.73 31c0 6.25-1.76 9.82-4.2 12.6-2.88 3.27-6.84 5.71-14.41 5.71h-19.64v-.98c3.27-.34 5.52-1.42 5.67-4.93.1-2.1.2-4.64.2-12.41s-.1-10.31-.2-12.41c-.15-3.52-1.81-4.49-5.67-4.93v-.98h17.63c12.8 0 20.61 6.45 20.61 18.32Zm-26.96-17.29V31c0 7.77.1 9.96.2 12.06.2 4.2 3.03 5.28 6.84 5.28 5.42 0 8.01-2.2 10.7-6.06 2.05-2.93 2.98-6.74 2.98-11.28s-1.12-8.4-3.18-11.38c-2.44-3.66-5.52-5.91-11.82-5.91h-5.71Zm62.72 27.74c0-5.03-2.34-5.76-7.62-8.4-7.47-3.76-10.5-5.86-10.5-11.28 0-6.3 5.13-9.77 10.6-9.77 4.3 0 6.2 2.2 7.52 2.2.64 0 1.12-.54 1.27-1.12h.83l.54 9.43h-.88c-1.07-5.28-4.88-9.43-9.28-9.43-3.13 0-6.15 1.66-6.15 5.76 0 4.74 3.08 6.01 8.55 8.69 6.35 3.13 9.96 4.93 9.96 11.67 0 7.86-6.84 10.79-12.11 10.79-4.69 0-6.69-1.95-8.65-1.95-.88 0-1.51.54-1.81 1.32h-.98l-.2-10.99h.83c1.91 6.25 5.57 10.55 10.79 10.55 4.54 0 7.28-2.83 7.28-7.47Zm39.42-3.08h.98v10.94h-32.14v-.98c3.57-.24 5.52-1.42 5.67-4.93.1-2.1.2-4.64.2-12.41s-.1-10.31-.2-12.41c-.15-3.52-2.1-4.69-5.67-4.93v-.98h28.72l.2 8.84h-.98c-.73-4.74-2.3-7.82-10.94-7.82h-5.71v15.92h1.86c5.03 0 6.59-2.59 6.94-6.64h1.03v14.36h-1.03c-.34-4.05-1.91-6.64-6.94-6.64h-1.86v.29c0 7.77.1 9.96.2 12.06.2 4.2 2.59 5.28 8.55 5.28 6.94 0 9.48-2.88 11.14-9.96Zm12.41 7.52c0 1.66 1.07 2.25 4.05 2.44v.98h-13.29v-.98c3.18-.24 5.91-2.39 11.38-9.38l5.76-7.33-7.08-10.16c-3.76-5.37-4.84-7.08-9.72-7.82v-.98h18.41v.98c-2.88.2-4.54.83-4.54 2.49s.49 2.54 2.83 5.86l3.71 5.28 4.44-5.81c1.86-2.44 2.88-3.81 2.88-5.37 0-1.66-1.07-2.25-4.05-2.44v-.98h12.94v.98c-2.69.24-5.86 2.1-11.38 9.38l-4.05 5.37 8.5 12.11c3.57 5.08 4.79 7.08 9.82 7.82v.98h-18.56v-.98c2.88-.2 4.35-.83 4.35-2.49s-.29-2.54-2.64-5.86L401 32.7l-6.15 7.81c-1.9 2.44-2.54 3.81-2.54 5.37Zm45.87-32.19h-1.32c-5.32 0-8.94.59-10.65 2.15-1.56 1.42-2.49 4.49-2.93 6.89h-.93l.15-10.06h36.78l.15 10.06h-.93c-.44-2.39-1.37-5.47-2.93-6.89-1.71-1.56-5.32-2.15-10.65-2.15h-1.32V31c0 7.77.1 10.31.2 12.41.15 3.52 2.34 4.74 5.67 4.93v.98h-17.14v-.98c3.96-.29 5.52-1.42 5.67-4.93.1-2.1.2-4.64.2-12.41V13.71Zm42.84 36.29c-10.79 0-19.39-9.33-19.39-19s8.6-19 19.39-19 19.39 9.33 19.39 19-8.6 19-19.39 19Zm0-1.07c9.48 0 12.99-8.21 12.99-17.93s-3.52-17.93-12.99-17.93-12.99 8.21-12.99 17.93 3.52 17.93 12.99 17.93Zm50.46-35.27v-.98h14.26v.98c-4.3.34-6.3 1.47-6.3 7.18V49.6h-1.12l-25.74-32.19v23.74c0 5.71 2 6.84 6.3 7.18v.98h-14.26v-.98c4.3-.34 6.3-1.47 6.3-7.18V19.72c0-3.81-2-5.81-6.15-6.06v-.98h10.84l22.17 27.74V20.84c0-5.71-2-6.84-6.3-7.18ZM40.68 11.31c2.24-2.55 3.82-5.05 3.82-7.16 0-2.8-1.74-4.15-3.97-4.15-1.79 0-4.11 1.09-4.11 4.47 0 2.86 1.26 4.52 2.99 6.86-.94 1.05-1.99 2.11-3.07 3.14-.89-.53-2.03-.93-3.47-.93-3.98 0-6.69 2.92-6.69 6.69 0 .85.14 1.73.43 2.58-1.35.98-2.7 1.82-4.12 2.51v-1.59c0-1.02-.33-1.36-.86-1.36s-.86.34-.86 1.36v2.35c-2.82 1.12-5.93 1.7-9.69 1.7-5.6 0-10.03-3-10.03-8.67 0-3.93 1.99-6.44 4.38-7.9 1.37 1.85 3.71 2.68 6.3 2.68s4.43-.9 4.43-2.66c0-1.92-1.78-2.62-4.97-2.62-1.58 0-3.51.41-5.32 1.29-.41-.82-.64-1.81-.64-2.98C5.24 3.03 7.99.93 11.3.93c2.14 0 3.45.72 4.74 2.21.13.14.29.25.48.25.29 0 .5-.18.5-.48 0-.16-.05-.29-.16-.43C15.51.83 13.77 0 11.3 0 7.6 0 4.18 2.58 4.18 6.93c0 1.38.27 2.54.76 3.48C2.23 12.04 0 14.85 0 19.11c0 6.07 4.59 9.6 11.09 9.6 3.59 0 6.75-.58 9.69-1.7v16.75c0 11.7.44 16.06.5 16.82.09 1.11.14 1.42.35 1.42s.27-.31.35-1.42c.06-.76.5-5.12.5-16.82V26.28c1.53-.72 3.01-1.59 4.46-2.62 1.29 2.76 4.23 5.05 9.12 5.05 4.59 0 9.29-2.33 9.29-8.18 0-3.22-2.63-6.42-4.68-9.22ZM11.19 9.55c2.66 0 3.91.47 3.91 1.69s-1.4 1.72-3.37 1.72c-2.25 0-4.2-.73-5.36-2.25 1.68-.81 3.45-1.15 4.82-1.15Zm10.05 14.03c0-.36.13-.46.38-.46s.38.1.38.46v1.97c-.25.12-.5.23-.76.34v-2.31ZM22 27.8c0 .43-.12.53-.38.53s-.38-.09-.38-.53v-.97c.26-.1.51-.21.76-.32v1.29ZM37.52 4.47c0-2.73 1.62-3.54 3.01-3.54 1.67 0 2.87.97 2.87 3.23 0 1.83-1.35 4.07-3.3 6.37-1.52-2.06-2.59-3.52-2.59-6.06ZM27.26 20.22c0-3.45 2.26-5.76 5.6-5.76 1.11 0 2.01.3 2.74.71-2.16 2-4.39 3.88-6.16 5.39-.64.55-1.28 1.07-1.92 1.56-.17-.64-.25-1.28-.25-1.9Zm8.81 7.55c-4.63 0-7.2-2.22-8.25-4.75a38.1 38.1 0 0 0 2.29-1.86c1.82-1.59 4.06-3.48 6.23-5.48.76.62 1.23 1.32 1.45 1.7.14.25.31.34.52.34.23 0 .48-.13.48-.43 0-.14-.04-.29-.14-.47-.23-.43-.74-1.17-1.56-1.85a60.72 60.72 0 0 0 2.89-2.9c2.2 2.97 4.31 5.7 4.31 8.44 0 5.1-4.07 7.25-8.22 7.25Z" style="fill:#121212"/></svg>